<svg width="22" height="22" viewBox="0 0 24 24" fill="#e3e9ff" xmlns="http://www.w3.org/2000/svg">
  <path d="M12 2C6.486 2 2 6.486 2 12c0 1.936.549 3.745 1.587 5.337L2 22l4.78-1.538C8.29 21.47 10.11 22 12 22c5.514 0 10-4.486 10-10S17.514 2 12 2zm0 18c-1.715 0-3.396-.553-4.79-1.598l-.343-.247-2.835.912.94-2.741-.223-.324A7.92 7.92 0 0 1 4 12c0-4.411 3.589-8 8-8s8 3.589 8 8-3.589 8-8 8zm4.507-5.493c-.245-.122-1.453-.718-1.678-.799-.224-.083-.387-.122-.55.122s-.63.799-.773.964c-.142.163-.285.184-.53.061-.245-.122-1.034-.381-1.97-1.214-.728-.649-1.219-1.452-1.362-1.697-.143-.245-.015-.377.107-.498.11-.109.245-.285.367-.428.122-.143.163-.245.245-.408.082-.163.041-.306-.02-.428-.061-.122-.55-1.327-.754-1.817-.198-.475-.4-.41-.55-.418l-.47-.008c-.163 0-.428.061-.652.306-.224.244-.855.836-.855 2.04s.875 2.366 1 2.53c.122.163 1.722 2.63 4.17 3.689.584.252 1.039.403 1.394.516.586.187 1.12.161 1.541.098.47-.07 1.453-.594 1.659-1.168.204-.573.204-1.066.143-1.168-.061-.102-.224-.163-.47-.285z"></path>
</svg>
